<?xml version="1.0" encoding="utf-8"?>
<!-- Generator: Adobe Illustrator 18.0.0, SVG Export Plug-In . SVG Version: 6.00 Build 0)  -->
<!DOCTYPE svg PUBLIC "-//W3C//DTD SVG 1.1//EN" "http://www.w3.org/Graphics/SVG/1.1/DTD/svg11.dtd">
<svg version="1.1"
	 id="svg8032" xmlns:svg="http://www.w3.org/2000/svg" xmlns:cc="http://creativecommons.org/ns#" xmlns:dc="http://purl.org/dc/elements/1.1/" xmlns:rdf="http://www.w3.org/1999/02/22-rdf-syntax-ns#"
	 xmlns="http://www.w3.org/2000/svg" xmlns:xlink="http://www.w3.org/1999/xlink" x="0px" y="0px" viewBox="0 0 195.9 300"
	 enable-background="new 0 0 195.9 300" xml:space="preserve">
<g id="g7555" transform="matrix(1.25,0,0,-1.25,-104.76304,975.27532)">
	<g>
		<defs>
			<rect id="SVGID_1_" x="-93.2" y="-282.6" width="1238.6" height="1235.6"/>
		</defs>
		<clipPath id="SVGID_2_">
			<use xlink:href="#SVGID_1_"  overflow="visible"/>
		</clipPath>
		<g id="g7557" clip-path="url(#SVGID_2_)">
			<g id="g7563" transform="translate(94.5226,568.5977)">
				<path id="path7565" fill="#C11933" d="M59.6,34.5c0,0-13.6-5.6-16.7-8c-2.6-2.1-9.8-7.6-11.9-18.3c0,0-3.2-11.5,10.6-13.3
					c0,0,0.8-0.7-4.1-0.7c-4.9,0-15,2.8-14.5,13.1c0.4,10.3,9,16.7,15.3,20.5C44.6,31.6,55.3,36.2,59.6,34.5"/>
			</g>
			<g id="g7567" transform="translate(88.2384,561.5371)">
				<path id="path7569" fill="#0061AA" d="M58.3,33c0,0-4.5-14-4.7-18C53.5,11.7,53,2.6,59.8-5.9c0,0,6.7-9.9,16.9-0.5
					c0,0,1,0.1-2.1-3.6c-3.2-3.8-11.8-9.7-19.3-2.7c-7.5,7-6.9,17.7-5.7,25C50.8,19.6,54.2,30.8,58.3,33"/>
			</g>
			<g id="g7571" transform="translate(88.2013,542.772)">
				<path id="path7573" fill="#009055" d="M58.2,28.9c0,0,12.3-8,16.1-9.2c3.2-1,11.8-3.8,21.8,0.5c0,0,11.3,3.8,4.9,16.2
					c0,0,0.1,1,2.9-3c2.8-4.1,6.2-14-2.5-19.4s-18.9-2-25.6,1C69.2,18.1,59.3,24.4,58.2,28.9"/>
			</g>
		</g>
	</g>
</g>
<g id="g7575" transform="matrix(1.25,0,0,-1.25,19.725585,206.47294)">
	<path id="path7577" fill="#DA1935" d="M60.7,27.7v-3.2l-5.3-1.6l-5.3,1.6v3.2l5.3,3.2L60.7,27.7z"/>
</g>
<g id="g7579" transform="matrix(1.25,0,0,-1.25,-104.76304,975.27532)">
	<g>
		<defs>
			<rect id="SVGID_3_" x="-93.2" y="-282.6" width="1238.6" height="1235.6"/>
		</defs>
		<clipPath id="SVGID_4_">
			<use xlink:href="#SVGID_3_"  overflow="visible"/>
		</clipPath>
		<g id="g7581" clip-path="url(#SVGID_4_)">
			<g id="g7587" transform="translate(123.9034,673.8262)">
				<path id="path7589" fill="#14377D" d="M66,40.6c-0.7-0.2-1.3-0.4-2-0.6c-6.1-1.8-10.6-4.1-13.8-5.9c-2.8-2.1-5.4-4.9-6.8-8.2
					c-2-4.9-2.1-9.7-1.8-13.2L43.9,8c2.3,1.6,5,4,6.3,6.9c2.5,5.8,7,10.5,12.3,12.8c4.8,2.1,8.1,3.2,14.5,5.3
					c3.7,1.2,8.2,3.8,11.4,6.8c1.8,1.7,2.8,4.3,2.8,4.3c1.4,3.7,2.1,7.4,2.3,10.6c0,0-0.3-5.1-14.3-10.7C71.1,41.5,66,40.6,66,40.6"
					/>
			</g>
			<g id="g7591" transform="translate(141.4611,681.941)">
				<path id="path7593" fill="#DA1935" d="M69.9,42.3c-2.6-1.9-5.5-3.3-8.3-4.3C71,44.3,71.5,52,71.5,52s1.7,7.5-1.6,12.8
					C69.9,64.7,82.7,52,69.9,42.3"/>
			</g>
			<g id="g7595" transform="translate(112.4728,675.7764)">
				<path id="path7597" fill="#DA1935" d="M63.5,41c-2.9-0.1-11.6-0.7-15.8-2.6c-3.4-1.4-7.7-4.1-11.4-9.3c-4.2-6-3-13.8-1.4-19.3
					c2.7-1.5,6.6-3.6,7.6-4.2c1.1,0.6,5.9,3.2,8.5,4.7c-0.4,3.8-0.3,9,1.9,14.3c0,0,1.7,4.5,7,8.5c2.8,2.2,5.6,3.5,8.1,5
					c5.3,2.9,8,7.9,8,7.9c-1.4-1.6-4.6-3.5-8-4.4C66.9,41.3,64.1,41,63.5,41"/>
			</g>
			<g id="g7599" transform="translate(86.9337,651.5493)">
				<path id="path7601" fill="#14377D" d="M58,35.7c0,0.1-0.1,0.2-0.1,0.3C57.3,38.6,57,41,57,43.3c0,4.3,1.1,8.2,3.2,11.2
					c2.2,3.2,4.7,5.5,7.1,7.2c-0.6-0.2-1.2-0.4-1.7-0.6c-4.4-1.7-7.2-3.4-11-7.3c-3.8-3.9-5.5-8.3-5.1-12.9c0.5-5.7,3-9.7,5.2-12.2
					l2.3,4.8L58,35.7z"/>
			</g>
			<g id="g7603" transform="translate(150.1827,665.3145)">
				<path id="path7605" fill="#14377D" d="M71.8,38.7C71.8,38.7,71.8,38.7,71.8,38.7c-1.1-2.2-3.4-5.7-7.2-9.3
					c-0.4-0.4-0.8-0.7-1.1-1c-2.3-1.6-5-2.8-7.7-4c-2.3-1.1-4.7-2.1-7-3.6C42.6,17,39.2,10.5,36.4,5.3l-1-1.9
					C32.3-2.2,30.5-5.2,23-12.4c-2-1.9-4.1-3.7-6.2-5.2c0.1,2.7,0.4,7.2,0.4,8.1c0.8,1,8.2,10,8.2,10l-2,4.2
					c4.8,3.8,6.4,6.6,8.8,10.9c0.7,1.3,1.5,2.7,2.5,4.4c1.8,2.9,4.5,5.3,7.2,7.2c0,0,5.5,3.7,16.6,5.1
					C69.4,33.7,71.8,38.7,71.8,38.7"/>
			</g>
			<g id="g7607" transform="translate(78.504,633.9332)">
				<path id="path7609" fill="#14377D" d="M56.1,31.8l1.9,4c-3,2.7-6.3,6.6-7.9,11c-1.3,3.5-1.1,7.3-0.4,10.7
					c-7.7-20.8,7-36.8,14.6-43.3v7.6C63.5,22.8,56.1,31.8,56.1,31.8"/>
			</g>
			<g id="g7611" transform="translate(140.6984,661.7744)">
				<path id="path7613" fill="#DA1935" d="M69.7,37.9c13.2,7.2,9.7,16.5,9.3,17.5C79,55.4,89.3,43.2,69.7,37.9"/>
			</g>
			<g id="g7615" transform="translate(113.1915,677.4625)">
				<path id="path7617" fill="#DA1935" d="M63.7,41.4c0,0-0.1,0-0.1,0c2.6,1,4.8,2,5.9,3.1c2.9,2.5,5.2,10.8,2.1,14.9
					c0,0,7.2-5.1,4.8-11C73.8,42.4,64.1,41.4,63.7,41.4"/>
			</g>
			<g id="g7619" transform="translate(132.672,649.5239)">
				<path id="path7621" fill="#DA1935" d="M68,35.3c-0.2-0.1-0.4-0.3-0.6-0.4c-5.7-3.5-8.9-9.5-11.7-14.7l-1-1.9
					c-3.2-5.8-5-8.9-12.7-16.3C38.1-1.8,33.8-4.8,30.3-7c0,0,0.1,0,0.1,0c11.7,2.6,18.8,7.1,24,13.2c4.1,6.1,5.4,11.2,6.2,16
					c0.3,1.8,1,3.6,1.8,5.2C64,30.5,67.4,34.6,68,35.3"/>
			</g>
			<g id="g7623" transform="translate(135.4093,649.8671)">
				<path id="path7625" fill="#DA1935" d="M68.6,35.3c-3.5-2.8-8.1-8.1-9.5-17.5c5.6,9.9,14,14.8,16.4,17.1
					c2.3,2.2,6.6,6.6,9.4,13.4c-0.3-0.4-1.3-2-1.6-2.4c-0.9-1.1-1.9-2.1-3-2.9c-1.5-1.3-2.8-2.3-4.1-3.1c-1.2-0.8-2.3-1.4-3.4-2
					C72.8,37.9,70.9,37.2,68.6,35.3"/>
			</g>
		</g>
	</g>
</g>
<g id="g7627" transform="matrix(1.25,0,0,-1.25,23.354835,183.06519)">
	<path id="path7629" fill="#DA1935" d="M61.4,31.8L57.8,31l-0.1-11.1l-1.6,11.4l0.8,1.9l7,2.4L61.4,31.8z M47.5,19.9L47.4,31
		l-3.6,0.8l-2.5,3.8l7-2.4l0.8-1.9L47.5,19.9z M61.9,50.5l-9.4-5.1l-9.4,5.1l-8.7-18.2l7.8-9.6V12.3l4-2.3l5,3l-3.5,4.4l4.8-1.4
		l4.8,1.4L53.9,13l5-3l4,2.3v10.5l7.9,9.6C70.6,32.3,61.9,50.5,61.9,50.5z"/>
</g>
<g id="g7631" transform="matrix(1.25,0,0,-1.25,-104.76304,975.27532)">
	<g>
		<defs>
			<rect id="SVGID_5_" x="-93.2" y="-282.6" width="1238.6" height="1235.6"/>
		</defs>
		<clipPath id="SVGID_6_">
			<use xlink:href="#SVGID_5_"  overflow="visible"/>
		</clipPath>
		<g id="g7633" clip-path="url(#SVGID_6_)">
			<g id="g7639" transform="translate(114.4318,644.2036)">
				<path id="path7641" fill="#DA1935" d="M64,34.1c0.7,1.1,1.3,2.2,2.1,3.6c0.7,1.3,1.6,2.8,2.6,4.5c1.5,2.4,3.3,4.5,5.5,6.3
					c3.9,3.2,3.8,2.2,10.8,7c2.7,1.9,6.8,5.2,10.9,10.2c-2.8-2.1-5.9-3.8-8.8-4.7c-6.3-2.1-9.6-3.2-14.3-5.2
					c-4.9-2.1-9-6.4-11.3-11.8c-0.3-0.8-0.8-1.5-1.2-2.2l-1.6-2c-1.4-1.5-3-2.8-4.4-3.7l3.9-8.1c1.9,1.5,3.2,2.9,4.3,4.2L64,34.1z"
					/>
			</g>
			<g id="g7643" transform="translate(83.4327,644.2324)">
				<path id="path7645" fill="#DA1935" d="M57.2,34.1L54,27.5c-1.4,1.3-2.8,2.9-4.1,4.6l-1.5,2.3c-0.5,0.9-1,1.9-1.4,2.9
					c-2.5,6.6-0.2,13.7,2,17.5c0.4,0.6,0.9,1.4,1.3,1.9c0.4,0.5,0.7,0.8,1.2,1.3c1.1,1.1,2.5,2.3,4,3.5c-3.2-3.7-5.2-8.2-4.7-13.4
					C50.9,48.1,50.9,40.6,57.2,34.1"/>
			</g>
			<g id="g7651" transform="translate(46.0411,597.8052)">
				<path id="path7653" fill="#14377D" d="M65.5,29.1c0,2.8-1.8,4.2-4.3,4.2h-5.6V19.8h2v5h3.5C63.7,24.8,65.5,26.3,65.5,29.1
					 M63.4,29.1c0-1.4-0.8-2.3-2.3-2.3h-3.6v4.6h3.6C62.5,31.4,63.4,30.5,63.4,29.1 M73.8,19.8v6.9c0,2.3-1.5,3.4-3.8,3.4
					c-1.4,0-2.5-0.3-3.5-0.9l0.8-1.5c0.8,0.4,1.6,0.6,2.6,0.6c1.2,0,1.9-0.6,1.9-1.7v-0.7c-0.6,0.2-1.3,0.4-2.2,0.4
					c-2.3,0-4-1-4-3.3c0-2.5,1.9-3.4,3.5-3.4c1.1,0,2.1,0.5,2.8,1.2v-1C71.9,19.8,73.8,19.8,73.8,19.8z M71.9,22.7
					c-0.5-0.6-1.4-1.3-2.4-1.3c-1.3,0-1.9,0.7-1.9,1.7c0,0.9,0.8,1.5,2.1,1.5c1.1,0,1.8-0.2,2.3-0.4V22.7z M81.2,29.7
					c-0.4,0.3-0.9,0.4-1.7,0.4c-1,0-1.8-0.5-2.3-1.2v1h-2V19.8h2v5.8c0,1.7,0.7,2.6,2,2.6c0.7,0,1.1-0.1,1.5-0.4
					C80.7,27.8,81.2,29.7,81.2,29.7z M89.5,19.8v6.9c0,2.3-1.5,3.4-3.8,3.4c-1.4,0-2.5-0.3-3.5-0.9l0.8-1.5c0.8,0.4,1.6,0.6,2.6,0.6
					c1.2,0,1.9-0.6,1.9-1.7v-0.7c-0.6,0.2-1.3,0.4-2.2,0.4c-2.3,0-4-1-4-3.3c0-2.5,1.9-3.4,3.5-3.4c1.1,0,2.1,0.5,2.8,1.2v-1
					C87.6,19.8,89.5,19.8,89.5,19.8z M87.6,22.7c-0.5-0.6-1.4-1.3-2.4-1.3c-1.3,0-1.9,0.7-1.9,1.7c0,0.9,0.8,1.5,2.1,1.5
					c1.1,0,1.8-0.2,2.3-0.4V22.7z M93.3,19.8v14l-2-1v-13H93.3z M103.8,29.9h-2.1l-1.7-5c-0.3-0.9-0.7-2.3-0.9-2.9
					c-0.1,0.6-0.6,2.1-0.9,2.9l-1.7,4.9h-2.2l3.7-9.9l-1.5-3.7h2.1L103.8,29.9z M118.7,19.8v5.8c0,3-1.1,4.5-3.5,4.5
					c-1.6,0-2.4-0.6-3.1-1.5c-0.5,1-1.4,1.5-2.8,1.5c-1,0-1.9-0.4-2.4-1.2v1h-2V19.8h2v5.9c0,1.6,0.6,2.6,1.9,2.6
					c1.3,0,1.9-0.7,1.9-2.8v-5.7h2v5.9c0,1.6,0.6,2.6,1.9,2.6c1.3,0,1.9-0.7,1.9-2.8v-5.7L118.7,19.8L118.7,19.8z M128.8,24.7
					c0,3.8-1.7,5.4-3.9,5.4c-1.1,0-1.9-0.5-2.6-1.2v1h-2L120,16.1l2.3,1v3.6c0.6-0.6,1.5-1.2,2.5-1.2
					C126.9,19.6,128.8,21.3,128.8,24.7 M126.8,24.6c0-2.1-0.8-3.2-2.2-3.2c-1,0-1.9,0.7-2.4,1.3V27c0.5,0.7,1.3,1.3,2.3,1.3
					C126,28.3,126.8,27.2,126.8,24.6 M132.5,32.5c0,0.7-0.6,1.3-1.3,1.3c-0.7,0-1.3-0.6-1.3-1.3c0-0.7,0.6-1.3,1.3-1.3
					C131.9,31.2,132.5,31.8,132.5,32.5 M132.2,29.9h-2V19.8h2V29.9z M141.5,28.4c-0.9,1.1-2.1,1.7-3.6,1.7c-2.5,0-4.4-1.9-4.4-5.3
					c0-3.1,1.9-5.2,4.4-5.2c1.8,0,2.8,0.9,3.6,1.9l-1.3,1.2c-0.8-0.8-1.3-1.2-2.3-1.2c-1.6,0-2.4,1.4-2.4,3.4c0,2.1,0.9,3.3,2.4,3.3
					c0.9,0,1.6-0.4,2.5-1.2C140.4,27,141.5,28.4,141.5,28.4z"/>
			</g>
		</g>
	</g>
</g>
<path fill="#14377D" stroke="#14377D" stroke-width="0.9084" stroke-miterlimit="10" d="M173.2,198.2c0-2.3-1.5-3.6-2.8-3.9
	c1.2-0.6,2.1-1.7,2.1-3.4c0-2.8-1.9-4.4-4.8-4.4h-6.9v16.8h6.7C171.2,203.4,173.2,201.6,173.2,198.2 M170,191.1
	c0,1.1-0.7,2.1-2.3,2.1h-4.5v-4.3h4.5C169.4,188.9,170,189.8,170,191.1 M170.7,198.3c0,1.7-0.8,2.8-3,2.8h-4.5v-5.6h4.6
	C169.6,195.5,170.7,196.6,170.7,198.3"/>
<g>
	<path fill="#14377D" stroke="#14377D" stroke-width="0.9084" stroke-miterlimit="10" d="M155.5,199.7l-0.2,0.1
		c-0.6,0.4-1.2,0.8-2,1.1c-0.8,0.3-1.6,0.5-2.3,0.5c-1.6,0-2.9-0.6-3.9-1.7c-1-1.1-1.5-2.8-1.5-5c0-2,0.5-3.6,1.5-4.7
		c1-1.1,2.3-1.6,3.9-1.6c1.1,0,2,0.3,2.8,0.8c0.6,0.5,1.1,1.1,1.4,1.9l2.5-0.5c-0.4-1.3-1-2.3-2-3c-1.1-0.8-2.7-1.3-4.7-1.3
		c-1.5,0-2.9,0.3-3.9,0.8c-1.3,0.7-2.4,1.7-3.1,3.1c-0.7,1.3-1.1,2.9-1.1,4.6c0,1.6,0.3,3.1,1,4.5c0.6,1.3,1.6,2.4,2.8,3.1
		c1.3,0.7,2.7,1.1,4.4,1.1c1.3,0,2.7-0.3,4-0.8c1.2-0.5,2.2-1,2.8-1.7v-6.5h-6.5v2.2h4V199.7z"/>
</g>
<g>
	<path fill="#003781" d="M9.2,21.1H7.4V28H3.6V9.1H9c2.3,0,3.8,0.3,4.9,1c1.4,0.9,2.1,2.5,2.1,4.4C16,20.2,11.6,21.1,9.2,21.1z
		 M8.6,11.8H7.4v6.5h1c1.8,0,3.9-0.3,3.9-3.6C12.2,12,10.2,11.8,8.6,11.8z"/>
	<path fill="#003781" d="M26.4,17.4c0,0-0.6-0.6-2-0.6c-2.1,0-2.5,1.6-2.5,2.6V28h-3.7v-14h3.6v2c0,0,0.7-2.2,3-2.2
		c1.3,0,1.9,0.5,1.9,0.5L26.4,17.4z"/>
	<path fill="#003781" d="M33.7,28.2c-3.8,0-6.2-2.4-6.2-7c0-4.8,2.2-7.5,6.3-7.5c3.8,0,6.2,2.4,6.2,7C40,25.5,37.8,28.2,33.7,28.2z
		 M33.7,16.4c-1.9,0-2.6,1.4-2.6,4.5c0,2.9,0.6,4.6,2.5,4.6c1.9,0,2.6-1.4,2.6-4.5C36.3,18.1,35.7,16.4,33.7,16.4z"/>
	<path fill="#003781" d="M50.5,28.1v-1.8c0,0-1,1.9-3.9,1.9c-1.4,0-2.3-0.4-3-1c-1.3-1.2-1.3-2.9-1.3-4v-9.2H46v8.3
		c0,1.3,0,2.9,2.2,2.9c1,0,2.2-0.6,2.2-2.1v-9.1h3.7v13.9L50.5,28.1z"/>
	<path fill="#003781" d="M65.2,28.1v-1.8c0,0-0.8,1.9-3.6,1.9c-3.2,0-5.1-2.4-5.1-6.9c0-6.6,3.4-7.6,5.9-7.6c1.8,0,2.7,1,2.7,1V7.8
		l3.7-0.4v20.5L65.2,28.1z M65.2,17.3c0,0-0.6-0.8-2-0.8c-2,0-2.9,1.3-2.9,4.4c0,3.1,0.9,4.3,2.7,4.3c1.2,0,2.2-0.7,2.2-2.2V17.3z"
		/>
	<path fill="#003781" d="M84.4,27.6c0,0-0.9,0.5-2.8,0.5c-1.3,0-2.4-0.3-3.2-1.3c-0.6-0.8-0.7-1.9-0.7-3.4v-6.9h-1.4V14h1.4v-2.4
		l3.7-0.7V14h3.2v2.5h-3.2v6.7c0,0.7,0.1,1.3,0.3,1.6c0.2,0.4,0.7,0.6,1.4,0.6c1.2,0,1.6-0.5,1.6-0.5L84.4,27.6z"/>
	<path fill="#003781" d="M92.1,28.2c-3.8,0-6.2-2.4-6.2-7c0-4.8,2.2-7.5,6.3-7.5c3.8,0,6.2,2.4,6.2,7C98.5,25.5,96.2,28.2,92.1,28.2
		z M92.2,16.4c-1.9,0-2.6,1.4-2.6,4.5c0,2.9,0.6,4.6,2.5,4.6c1.9,0,2.6-1.4,2.6-4.5C94.7,18.1,94.2,16.4,92.2,16.4z"/>
	<path fill="#003781" d="M109.7,28.2c-2.9,0-4.1-1-4.1-1l-0.1-3c0,0,1.4,1.3,3.9,1.3c1.1,0,2.1-0.2,2.1-1.3c0-0.8-0.5-1-1.5-1.6
		l-1.4-0.8c-1.5-0.8-2.8-1.7-2.8-4.1c0-3.7,3-4.1,4.8-4.1c2.6,0,3.8,1,3.8,1v2.9c0,0-1.3-1.4-3.4-1.4c-1.4,0-1.7,0.6-1.7,1.2
		c0,0.9,0.6,1.1,1.5,1.6l1.5,0.8c1.3,0.6,2.7,1.6,2.7,4C114.9,27.8,111.5,28.2,109.7,28.2z"/>
	<path fill="#003781" d="M125.3,28.1v-1.8c0,0-1,1.9-3.9,1.9c-1.4,0-2.3-0.4-3-1c-1.3-1.2-1.3-2.9-1.3-4v-9.2h3.7v8.3
		c0,1.3,0,2.9,2.2,2.9c1,0,2.2-0.6,2.2-2.1v-9.1h3.7v13.9L125.3,28.1z"/>
	<path fill="#003781" d="M138.6,28.2c-1.8,0-2.7-1-2.7-1v6.9h-3.7V13.9h3.6v1.7c0,0,0.8-1.9,3.6-1.9c3.2,0,5.1,2.4,5.1,6.9
		C144.5,27.2,141.1,28.2,138.6,28.2z M138.1,16.7c-1.2,0-2.2,0.7-2.2,2.2v5.6c0,0,0.6,0.8,2,0.8c2,0,2.9-1.3,2.9-4.4
		C140.8,17.9,139.8,16.7,138.1,16.7z"/>
	<path fill="#003781" d="M153.4,28.2c-1.8,0-2.7-1-2.7-1v6.9H147V13.9h3.6v1.7c0,0,0.8-1.9,3.6-1.9c3.2,0,5.1,2.4,5.1,6.9
		C159.2,27.2,155.8,28.2,153.4,28.2z M152.8,16.7c-1.2,0-2.2,0.7-2.2,2.2v5.6c0,0,0.6,0.8,2,0.8c2,0,2.9-1.3,2.9-4.4
		C155.5,17.9,154.6,16.7,152.8,16.7z"/>
	<path fill="#003781" d="M167.2,28.2c-3.8,0-6.2-2.4-6.2-7c0-4.8,2.2-7.5,6.3-7.5c3.8,0,6.2,2.4,6.2,7
		C173.5,25.5,171.2,28.2,167.2,28.2z M167.2,16.4c-1.9,0-2.6,1.4-2.6,4.5c0,2.9,0.6,4.6,2.5,4.6c1.9,0,2.6-1.4,2.6-4.5
		C169.8,18.1,169.2,16.4,167.2,16.4z"/>
	<path fill="#003781" d="M184.1,17.4c0,0-0.6-0.6-2-0.6c-2.1,0-2.5,1.6-2.5,2.6V28H176v-14h3.6v2c0,0,0.7-2.2,3-2.2
		c1.3,0,1.9,0.5,1.9,0.5L184.1,17.4z"/>
	<path fill="#003781" d="M192.9,27.6c0,0-0.9,0.5-2.8,0.5c-1.3,0-2.4-0.3-3.2-1.3c-0.6-0.8-0.7-1.9-0.7-3.4v-6.9h-1.4V14h1.4v-2.4
		l3.7-0.7V14h3.2v2.5h-3.2v6.7c0,0.7,0.1,1.3,0.3,1.6c0.2,0.4,0.7,0.6,1.4,0.6c1.2,0,1.6-0.5,1.6-0.5L192.9,27.6z"/>
</g>
<path fill="#14377D" d="M140.6,199.8c0-2.4-1.5-3.2-4.3-4.3c-1.9-0.8-2.4-1.2-2.4-1.8c0-0.7,0.5-1.2,1.8-1.2s2.3,0.4,3.3,1.1
	l1.1-1.9c-1.1-0.8-2.7-1.4-4.3-1.4c-2.6,0-4.4,1.2-4.4,3.5c0,2,1,2.9,3.7,4c1.8,0.7,3,1.2,3,2.1c0,0.9-0.8,1.4-2.3,1.4
	c-1.2,0-2.5-0.4-3.7-1.3l-1.1,1.9c1.3,0.9,3.2,1.6,4.9,1.6C138.3,203.5,140.6,202.6,140.6,199.8"/>
</svg>
